<svg width="57" height="39" viewBox="0 0 57 39" fill="none" xmlns="http://www.w3.org/2000/svg">
<g filter="url(#filter0_d)">
<path d="M45.7357 29.8302C43.0409 29.7678 40.9073 27.5444 40.9701 24.8641C41.0329 22.1839 43.2683 20.0617 45.9631 20.1242C48.658 20.1867 50.7916 22.4101 50.7288 25.0903C50.666 27.7706 48.4305 29.8927 45.7357 29.8302Z" stroke="#263238" stroke-width="2" stroke-miterlimit="10"/>
<path d="M14.4374 29.8307C11.7419 29.8307 9.5567 27.6574 9.5567 24.9764C9.5567 22.2954 11.7419 20.1221 14.4374 20.1221C17.1329 20.1221 19.3181 22.2954 19.3181 24.9764C19.3181 27.6574 17.1329 29.8307 14.4374 29.8307Z" stroke="#263238" stroke-width="2" stroke-miterlimit="10"/>
<path d="M36.8409 24.8726C36.8437 23.7218 37.0748 22.5828 37.5211 21.5209C37.9674 20.4591 38.6201 19.4954 39.4417 18.685C42.9088 15.2508 48.5329 15.2508 52 18.685" stroke="#263238" stroke-width="2" stroke-miterlimit="10" stroke-linecap="round" stroke-linejoin="round"/>
<path d="M5.25796 24.8724C5.25796 20.0145 9.21708 16.0776 14.1013 16.0776C18.9856 16.0776 22.9438 20.0154 22.9438 24.8732" stroke="#263238" stroke-width="2" stroke-miterlimit="10" stroke-linecap="round" stroke-linejoin="round"/>
<path d="M24.2078 6.02637H7.78484V11.0527H24.2078V6.02637Z" stroke="#263238" stroke-width="2" stroke-miterlimit="10" stroke-linecap="round" stroke-linejoin="round"/>
<path d="M46.9473 16.078L39.3668 1H34.3132" stroke="#263238" stroke-width="2" stroke-miterlimit="10" stroke-linecap="round" stroke-linejoin="round"/>
<path d="M36.8408 24.9766H22.9438" stroke="#263238" stroke-width="2" stroke-miterlimit="10" stroke-linecap="round" stroke-linejoin="round"/>
<path d="M24.2079 11.0518C24.2079 11.0518 29.2615 29.8991 39.3669 11.0518" stroke="#263238" stroke-width="2" stroke-miterlimit="10" stroke-linecap="round" stroke-linejoin="round"/>
<path d="M7.78467 11.0518C7.78467 11.0518 3.99401 17.3342 5.25786 24.8728" stroke="#263238" stroke-width="2" stroke-miterlimit="10" stroke-linecap="round" stroke-linejoin="round"/>
</g>
<defs>
<filter id="filter0_d" x="-0.000244141" y="0" width="57.0001" height="38.8316" filterUnits="userSpaceOnUse" color-interpolation-filters="sRGB">
<feFlood flood-opacity="0" result="BackgroundImageFix"/>
<feColorMatrix in="SourceAlpha" type="matrix" values="0 0 0 0 0 0 0 0 0 0 0 0 0 0 0 0 0 0 127 0"/>
<feOffset dy="4"/>
<feGaussianBlur stdDeviation="2"/>
<feColorMatrix type="matrix" values="0 0 0 0 0 0 0 0 0 0 0 0 0 0 0 0 0 0 0.25 0"/>
<feBlend mode="normal" in2="BackgroundImageFix" result="effect1_dropShadow"/>
<feBlend mode="normal" in="SourceGraphic" in2="effect1_dropShadow" result="shape"/>
</filter>
</defs>
</svg>
